<?xml version="1.0" encoding="UTF-8"?>
<svg xmlns="http://www.w3.org/2000/svg" xmlns:xlink="http://www.w3.org/1999/xlink" width="18px" height="18px" viewBox="0 0 18 18" version="1.1">
<g id="surface1">
<path style="fill:none;stroke-width:2;stroke-linecap:round;stroke-linejoin:round;stroke:rgb(0%,0%,0%);stroke-opacity:1;stroke-miterlimit:4;" d="M 12 3 L 9 3 C 7.34375 3 6 4.34375 6 6 C 6 7.65625 7.34375 9 9 9 M 12 3 L 12 9 M 12 3 L 15 3 C 16.65625 3 18 4.34375 18 6 C 18 7.65625 16.65625 9 15 9 M 12 9 L 9 9 M 12 9 L 15 9 M 12 9 L 12 15 M 9 9 C 7.34375 9 6 10.34375 6 12 C 6 13.65625 7.34375 15 9 15 M 15 9 C 16.65625 9 18 10.34375 18 12 C 18 13.65625 16.65625 15 15 15 C 13.34375 15 12 13.65625 12 12 C 12 10.34375 13.34375 9 15 9 Z M 12 15 L 9 15 M 12 15 L 12 18 C 12 19.65625 10.65625 21 9 21 C 7.34375 21 6 19.65625 6 18 C 6 16.34375 7.34375 15 9 15 " transform="matrix(0.75,0,0,0.75,0,0)"/>
</g>
</svg>
